Coordinates
version=1
nRows=32
nColumns=18
inDegrees=yes

Units are S.I. units (second, meters, Newtons, ...)
Angles are in degrees.

endheader
time	ground_thorax_rot_x	ground_thorax_rot_y	ground_thorax_rot_z	ground_thorax_tx	ground_thorax_ty	ground_thorax_tz	clav_prot	clav_elev	scapula_abduction	scapula_elevation	scapula_upward_rot	scapula_winging	plane_elv	shoulder_elv	axial_rot	elbow_flexion	pro_sup
      4.14000000	     -1.21632017	    -10.58194252	    -11.05069576	     -0.00423131	      0.00403036	     -0.00078352	    -46.18597388	      8.92964401	     -2.49823468	     -1.92235054	     83.64684744	    -13.03945835	     28.50761174	     85.12171285	     -8.66974906	      0.00000000	     34.32000000
      4.15000000	     -1.28750586	    -10.46673496	    -11.08747333	     -0.00423131	      0.00403036	     -0.00078352	    -46.21582485	      8.89934180	     -2.65292716	     -1.96323902	     83.49738653	    -13.07720246	     28.28315098	     85.10121828	     -8.54228832	      0.00000000	     34.32000000
      4.16000000	     -1.16273919	    -10.44657764	    -10.91853443	     -0.00423131	      0.00403036	     -0.00078352	    -46.26609290	      9.18140487	     -2.81842805	     -1.77832496	     83.48425676	    -13.19034502	     28.26920650	     85.03623660	     -9.22764149	      0.00000000	     34.32000000
      4.17000000	     -1.13278168	    -10.41684579	    -10.94036418	     -0.00423131	      0.00403036	     -0.00078352	    -46.34948612	      9.17134960	     -3.01171779	     -1.80109834	     83.40879205	    -13.25829914	     28.33175886	     84.89657192	     -9.35928351	      0.00000000	     34.32000000
      4.18000000	     -1.05618114	    -10.38017224	    -10.91164126	     -0.00423131	      0.00403036	     -0.00078352	    -46.34975927	      9.19448309	     -3.05923235	     -1.79183831	     83.35433385	    -13.27387628	     28.24150797	     84.85667612	     -9.36782199	      0.00000000	     34.32000000
      4.19000000	     -1.09171458	    -10.18706109	    -10.90041456	     -0.00423131	      0.00403036	     -0.00078352	    -46.38187514	      9.30896805	     -3.34599859	     -1.74921752	     83.08370220	    -13.37233389	     27.97694500	     84.86801329	     -9.11629651	      0.00000000	     34.32000000
      4.20000000	     -0.98688325	    -10.22827121	    -10.88010322	     -0.00423131	      0.00403036	     -0.00078352	    -46.38010054	      9.31680324	     -3.39078505	     -1.75073680	     83.02332753	    -13.38313856	     27.93364652	     84.78256077	     -9.12992133	      0.00000000	     34.32000000
      4.21000000	     -1.03057365	    -10.03978955	    -10.73636290	     -0.00423131	      0.00403036	     -0.00078352	    -46.56438924	      9.47430943	     -3.88449947	     -1.68211555	     82.82919200	    -13.58571042	     27.97096200	     84.44494355	     -9.71554244	      0.00000000	     34.32000000
      4.22000000	     -1.04702439	     -9.98847876	    -10.74499501	     -0.00423131	      0.00403036	     -0.00078352	    -46.58017494	      9.42284635	     -3.97340113	     -1.72971187	     82.72816370	    -13.59977829	     27.72537087	     84.30660307	    -10.07707135	      0.00000000	     34.32000000
      4.23000000	     -1.05178381	     -9.94244586	    -10.74431822	     -0.00423131	      0.00403036	     -0.00078352	    -46.56213775	      9.37145701	     -4.02199861	     -1.77684496	     82.60620668	    -13.59343477	     27.50149206	     84.22171648	    -10.36205044	      0.00000000	     34.32000000
      4.24000000	     -1.07187238	     -9.86470815	    -10.76412548	     -0.00423131	      0.00403036	     -0.00078352	    -46.54473669	      9.25378664	     -4.06365546	     -1.87030672	     82.47144234	    -13.57203737	     27.35393254	     84.06058603	    -10.20876312	      0.00000000	     34.32000000
      4.25000000	     -0.91468214	     -9.78411272	    -10.75387729	     -0.00423131	      0.00403036	     -0.00078352	    -46.51572575	      9.23603612	     -4.05627974	     -1.88644658	     82.41184248	    -13.55611689	     27.32715362	     83.97444627	    -10.21979047	      0.00000000	     34.32000000
      4.26000000	     -1.06331459	     -9.63782530	    -10.70578063	     -0.00423131	      0.00403036	     -0.00078352	    -46.39230381	      9.21375333	     -4.08108168	     -1.92646314	     82.10001454	    -13.51479415	     27.16967068	     83.77476114	    -10.34626709	      0.00000000	     34.32000000
      4.27000000	     -0.96956739	     -9.57480690	    -10.74467148	     -0.00423131	      0.00403036	     -0.00078352	    -46.37117990	      9.23742676	     -4.09671609	     -1.91531280	     82.04159152	    -13.51538833	     27.11921733	     83.71048963	    -10.35546929	      0.00000000	     34.32000000
      4.28000000	     -0.99441356	     -9.45549202	    -10.67961366	     -0.00423131	      0.00403036	     -0.00078352	    -46.31959636	      9.48062775	     -4.27423029	     -1.77627652	     81.77874357	    -13.58658221	     26.86264716	     83.71838302	     -9.98533901	      0.00000000	     34.32000000
      4.29000000	     -0.91739256	     -9.48738325	    -10.58250252	     -0.00423131	      0.00403036	     -0.00078352	    -46.31636431	      9.63547991	     -4.31446019	     -1.67238322	     81.77282381	    -13.62621464	     26.66415812	     83.58459162	    -10.66758482	      0.00000000	     34.32000000
      4.30000000	     -0.99074896	     -9.51463167	    -10.60513370	     -0.00423131	      0.00403036	     -0.00078352	    -46.24873850	      9.51871595	     -4.35118832	     -1.77149121	     81.53567533	    -13.58581374	     26.58677103	     83.47993445	    -10.66953978	      0.00000000	     34.32000000
      4.31000000	     -0.87852223	     -9.51715550	    -10.57639063	     -0.00423131	      0.00403036	     -0.00078352	    -46.24608084	      9.50762673	     -4.38062179	     -1.78383351	     81.48740280	    -13.58851934	     26.54519837	     83.44035550	    -10.67880905	      0.00000000	     34.32000000
      4.32000000	     -0.91554684	     -9.25588120	    -10.55888811	     -0.00423131	      0.00403036	     -0.00078352	    -46.40054059	      9.52927530	     -4.90880134	     -1.81925907	     81.13560735	    -13.75541744	     26.65741697	     83.36785692	    -10.80262520	      0.00000000	     34.32000000
      4.33000000	     -0.88103591	     -9.10361749	    -10.53301263	     -0.00423131	      0.00403036	     -0.00078352	    -46.53946788	      9.56592326	     -5.33199995	     -1.83117898	     80.89264618	    -13.89862385	     26.77969121	     83.19650003	    -10.86218370	      0.00000000	     34.32000000
      4.34000000	     -0.76345911	     -9.00078195	    -10.51616553	     -0.00423131	      0.00403036	     -0.00078352	    -46.72616655	      9.66504842	     -5.74683606	     -1.79046170	     80.78578932	    -14.07171789	     26.84884481	     82.97538426	    -11.19567563	      0.00000000	     34.32000000
      4.35000000	     -0.88026622	     -8.91256314	    -10.48288084	     -0.00423131	      0.00403036	     -0.00078352	    -46.71552809	      9.71724409	     -5.99409733	     -1.78847448	     80.45523031	    -14.12754861	     26.70104197	     82.75666599	    -11.00941966	      0.00000000	     34.32000000
      4.36000000	     -0.76905063	     -8.89740161	    -10.46986116	     -0.00423131	      0.00403036	     -0.00078352	    -46.70637749	      9.71763205	     -6.02118416	     -1.79303393	     80.39996001	    -14.12909412	     26.63626985	     82.70855983	    -11.01677379	      0.00000000	     34.32000000
      4.37000000	     -0.89029292	     -8.81001365	    -10.51688742	     -0.00423131	      0.00403036	     -0.00078352	    -46.60627569	      9.63757262	     -6.04233306	     -1.86654486	     80.12677325	    -14.07742704	     26.23271388	     82.58401166	    -10.75359819	      0.00000000	     34.32000000
      4.38000000	     -0.75055055	     -8.82466819	    -10.47684364	     -0.00423131	      0.00403036	     -0.00078352	    -46.59603114	      9.61915548	     -6.06632025	     -1.88395427	     80.06660324	    -14.07401002	     26.17638762	     82.51602405	    -10.76252628	      0.00000000	     34.32000000
      4.39000000	     -0.93482403	     -8.84221798	    -10.60157868	     -0.00423131	      0.00403036	     -0.00078352	    -46.56174954	      9.39828005	     -6.09120953	     -2.04813531	     79.88041971	    -14.01669931	     25.78161285	     82.30955066	    -10.54740715	      0.00000000	     34.32000000
      4.40000000	     -1.14436534	     -8.83968118	    -10.74816902	     -0.00423131	      0.00403036	     -0.00078352	    -46.50178704	      9.15827150	     -6.23171382	     -2.24386597	     79.48021971	    -13.96413458	     25.58135757	     82.43119634	     -9.97133794	      0.00000000	     34.32000000
      4.41000000	     -1.08210219	     -8.97309254	    -10.74846205	     -0.00423131	      0.00403036	     -0.00078352	    -46.49946556	      9.22723305	     -6.29320004	     -2.20300226	     79.41906244	    -13.99031634	     25.51849430	     82.35814399	     -9.99349137	      0.00000000	     34.32000000
      4.42000000	     -0.83414797	     -9.06661703	    -10.40805687	     -0.00423131	      0.00403036	     -0.00078352	    -46.52172602	      9.84999225	     -6.37693861	     -1.77065872	     79.58185501	    -14.15313788	     25.23629007	     81.99999193	    -11.60279262	      0.00000000	     34.32000000
      4.43000000	     -0.90350131	     -9.01796497	    -10.49816639	     -0.00423131	      0.00403036	     -0.00078352	    -46.47548665	      9.64870909	     -6.47942054	     -1.93165861	     79.27467536	    -14.10991074	     25.19214708	     81.94706926	    -11.28636261	      0.00000000	     34.32000000
      4.44000000	     -1.00591242	     -8.90689850	    -10.60364520	     -0.00423131	      0.00403036	     -0.00078352	    -46.35488243	      9.40695612	     -6.53958981	     -2.12453376	     78.84927701	    -14.01836713	     25.00327726	     82.12808392	    -10.62523119	      0.00000000	     34.32000000
      4.45000000	     -0.88505472	     -8.90936571	    -10.59191300	     -0.00423131	      0.00403036	     -0.00078352	    -46.34243678	      9.42836623	     -6.57765924	     -2.11544117	     78.78069238	    -14.02482657	     24.93033232	     82.02209887	    -10.63702395	      0.00000000	     34.32000000
